<?xml version="1.0" encoding="UTF-8"?>
<svg version="1.1" xmlns="http://www.w3.org/2000/svg" width="497" height="497">
<path d="M0 0 C0.8161377 0.11827148 1.63227539 0.23654297 2.47314453 0.35839844 C32.73694042 4.9478917 61.56684219 16.58503888 86 35 C87.85365469 36.31322297 89.70782422 37.62571951 91.5625 38.9375 C96.34110454 42.3978688 100.69189322 46.192598 105.00390625 50.21484375 C106.87859345 52.04883698 106.87859345 52.04883698 109 53 C109 53.66 109 54.32 109 55 C109.81791016 55.33257812 109.81791016 55.33257812 110.65234375 55.671875 C113.74357855 57.42066008 116.08518568 59.74491851 118.5625 62.25 C119.08553711 62.77795166 119.60857422 63.30590332 120.14746094 63.84985352 C128.78711907 72.74308379 136.03305123 82.36813551 141.953125 93.2578125 C146.21082066 98.96182462 152.5458663 100.65053445 159.0625 102.6875 C188.63468499 112.55888322 212.94802596 140.21215474 229 166 C229.67546875 167.06089844 230.3509375 168.12179688 231.046875 169.21484375 C240.79993108 185.30738629 252.93038895 208.64790974 252 228 C250.68158154 231.95525539 249.40306284 234.49248001 246 237 C239.07041935 238.87920831 235.19917242 237.20542574 229 234 C214.24566604 226.83682718 200.15723123 223.98900535 184 222 C184.03480469 223.03253906 184.06960938 224.06507813 184.10546875 225.12890625 C184.95892628 262.42110132 174.31222676 298.04659247 148.55859375 325.61328125 C132.89760881 340.55184843 110.62918231 348.33095935 89.25 349.3125 C82.73804862 349.78253559 77.60496261 352.85363171 72 356 C59.73564621 362.84627513 47.63886688 363.44074658 33.92504883 363.38818359 C32.12822146 363.39225653 30.3313966 363.39760243 28.53457642 363.40411377 C23.68506342 363.41771228 18.83574335 363.41251842 13.98622727 363.40297651 C8.88662113 363.39533515 3.78703056 363.40243842 -1.31257629 363.40713501 C-9.87906836 363.41258207 -18.44548266 363.40543115 -27.01196289 363.39111328 C-36.87647322 363.37481492 -46.74079723 363.38005908 -56.60530299 363.3965925 C-65.10936569 363.41026861 -73.61337274 363.41209648 -82.11744291 363.40427649 C-87.18103506 363.39963011 -92.2445401 363.39889006 -97.30812645 363.40888596 C-102.07631253 363.41764205 -106.84426204 363.41137836 -111.61242294 363.39420319 C-113.34846291 363.39028285 -115.08452326 363.39129446 -116.82055473 363.39799118 C-145.76222531 363.49921749 -171.99950325 355.57081907 -193 335 C-221.44193324 305.95452441 -233.69771207 264.38907432 -238 225 C-238.13148438 223.92234375 -238.26296875 222.8446875 -238.3984375 221.734375 C-242.54022532 182.55530101 -233.71925084 142.47637304 -215 108 C-214.64292969 107.32743164 -214.28585938 106.65486328 -213.91796875 105.96191406 C-208.9798671 96.67461865 -203.51182214 88.28777363 -197 80 C-196.30003906 79.02289063 -195.60007813 78.04578125 -194.87890625 77.0390625 C-183.96841499 62.0253189 -170.2401788 48.58451321 -155 38 C-153.8932203 37.2018352 -152.78644975 36.40365774 -151.6796875 35.60546875 C-136.24041399 24.70119894 -119.00126742 15.78840849 -101 10 C-100.24187012 9.75056641 -99.48374023 9.50113281 -98.70263672 9.24414062 C-66.62342861 -1.21857674 -33.4946249 -4.92709295 0 0 Z M-152.52294922 66.69042969 C-153.93457407 67.94199261 -155.35957227 69.17842309 -156.78515625 70.4140625 C-161.9730301 74.9681237 -166.62133165 79.67058494 -171 85 C-171.90360097 86.05602797 -172.80725105 87.11201392 -173.7109375 88.16796875 C-181.77710402 97.75033199 -188.14496145 107.94306535 -194 119 C-194.37108887 119.69818848 -194.74217773 120.39637695 -195.12451172 121.11572266 C-216.37849854 161.83048302 -222.02843025 210.51649663 -208.88085938 254.67480469 C-207.67537044 258.48284143 -206.36173418 262.24539189 -205 266 C-204.56042969 267.24394531 -204.12085938 268.48789062 -203.66796875 269.76953125 C-197.72825076 285.56883876 -189.88703702 301.04503417 -179 314 C-178.37996094 314.79277344 -177.75992188 315.58554687 -177.12109375 316.40234375 C-166.32574957 329.58663674 -150.62926785 337.61359683 -133.8278656 339.5292511 C-126.37859632 340.24664137 -118.90938422 340.14797289 -111.43383789 340.14526367 C-109.77535426 340.14826064 -108.11687132 340.1516644 -106.45838928 340.15544128 C-101.97904312 340.16422882 -97.49971609 340.16661712 -93.02036214 340.16725707 C-90.21644282 340.16797033 -87.41252828 340.17010982 -84.60861015 340.17275429 C-74.81174285 340.18198895 -65.01488909 340.18609136 -55.21801758 340.18530273 C-46.10895802 340.18470181 -36.99995765 340.19526134 -27.89091307 340.2110464 C-20.04856339 340.2241486 -12.206233 340.22948554 -4.36387247 340.22884732 C0.31054462 340.22859321 4.984909 340.23139662 9.65931511 340.24202538 C14.05641101 340.2517521 18.45340427 340.25175437 22.85050392 340.24450874 C24.45683824 340.24346871 26.06317911 340.24579094 27.66950226 340.2518692 C42.96647748 340.30596869 56.69467437 339.20079812 68.921875 329.08984375 C76.63971444 321.32848266 78.64672299 311.65529037 79 301 C78.5195303 291.63670029 75.29849919 284.83323002 68.4375 278.5 C63.2696109 274.22245883 57.61297574 270.65766385 52 267 C32.49108045 254.22154003 14.53545416 238.14230765 9.43359375 214.3125 C6.27096226 190.15113507 12.88575565 167.14709326 26.87109375 147.3515625 C28.8380525 144.82436809 30.88934474 142.40850035 33 140 C33.64146973 139.24420654 33.64146973 139.24420654 34.29589844 138.47314453 C41.65882267 129.82417672 49.4743049 123.15233306 59 117 C59.58620117 116.60828613 60.17240234 116.21657227 60.77636719 115.81298828 C77.01402727 105.0012569 94.78180344 99.65578093 114 97 C107.30137822 74.13803712 81.52299474 57.42342558 61.8125 46.5625 C41.52989655 35.6663441 20.75652021 27.84370205 -2 24 C-2.67885254 23.88285645 -3.35770508 23.76571289 -4.05712891 23.64501953 C-56.89005843 14.93657927 -112.62859613 31.29966043 -152.52294922 66.69042969 Z M58 145 C57.34386719 145.56074219 56.68773437 146.12148437 56.01171875 146.69921875 C54.1169397 148.3602348 54.1169397 148.3602348 52 151 C52.07047246 154.04953554 53.09623754 155.10418534 55.17578125 157.35546875 C56.57376953 158.66451172 56.57376953 158.66451172 58 160 C58.99827148 161.01223332 59.99158713 162.02937272 60.98046875 163.05078125 C81.42571544 183.9183323 105.02038069 199.31952014 135 201 C141.74034327 201.05362116 148.46523237 200.56731248 155.1875 200.125 C158.63898563 199.91344178 162.09087941 199.70926327 165.54296875 199.5078125 C166.7826516 199.43502327 166.7826516 199.43502327 168.04737854 199.36076355 C178.34142273 198.77867468 188.43151546 198.83780888 198.6875 199.9375 C199.54666016 200.02451172 200.40582031 200.11152344 201.29101562 200.20117188 C202.9994652 200.37471641 204.70764757 200.55091526 206.41552734 200.72998047 C210.60886487 201.16809036 214.80452133 201.58297784 219 202 C216.76265001 182.98887396 203.71136509 167.40619855 191 154 C190.55817383 153.525625 190.11634766 153.05125 189.66113281 152.5625 C173.34203144 135.11911816 151.77347156 120.90984928 127.2890625 119.625 C100.88476792 118.8256308 78.03491702 127.58912521 58 145 Z M37 173 C36.01321102 175.85172962 35.03543182 178.70604342 34.0625 181.5625 C33.64581055 182.76229492 33.64581055 182.76229492 33.22070312 183.98632812 C29.69220402 194.40177729 28.4074218 205.41605591 32 216 C40.1618843 232.40359143 53.63713626 242.19950821 68.5625 252 C82.0991186 260.94313202 94.45596583 270.67228401 99 287 C99.91142677 292.07622461 100.15795409 297.04254233 100.125 302.1875 C100.12306641 302.92347412 100.12113281 303.65944824 100.11914062 304.41772461 C100.07042604 310.64304214 99.66795467 316.80949149 99 323 C111.74086989 321.11141973 121.34126391 316.44295113 131 308 C131.61359375 307.54109375 132.2271875 307.0821875 132.859375 306.609375 C150.25670596 293.3618661 156.58304227 268.57647345 159.47265625 248.06640625 C160.47077997 239.74215273 160.2379847 231.36472133 160 223 C158.58859741 222.97812622 158.58859741 222.97812622 157.14868164 222.95581055 C116.29789863 222.24816706 85.80682605 215.58692253 54.54272461 187.80957031 C51.69663218 184.95132799 51.69663218 184.95132799 48 184 C48 183.34 48 182.68 48 182 C47.34 182 46.68 182 46 182 C45.67 181.01 45.34 180.02 45 179 C44.34 179 43.68 179 43 179 C42.7525 178.38125 42.505 177.7625 42.25 177.125 C40.77952822 174.62519797 39.58596924 174.16683978 37 173 Z " fill="#5D1E30" transform="translate(243,73)"/>
<path d="M0 0 C2.97076242 3.87849538 3.55789487 7.09915202 3.25 11.9375 C1.67718399 15.74537034 -0.30077376 17.76142132 -3.75 19.9375 C-6.73583984 20.67358398 -6.73583984 20.67358398 -10.2109375 21.18359375 C-11.48839844 21.38146484 -12.76585937 21.57933594 -14.08203125 21.78320312 C-15.42952235 21.98159372 -16.77718005 22.17885596 -18.125 22.375 C-48.9289179 26.92662369 -78.54665827 39.131491 -98.46484375 64.0859375 C-101.36200029 68.08060511 -103.94591029 72.24274136 -106.48828125 76.46875 C-106.97441895 77.27513916 -107.46055664 78.08152832 -107.96142578 78.91235352 C-108.93096981 80.5299173 -109.89188336 82.15269156 -110.84326172 83.78100586 C-111.29072754 84.53260986 -111.73819336 85.28421387 -112.19921875 86.05859375 C-112.59455811 86.7333374 -112.98989746 87.40808105 -113.3972168 88.10327148 C-115.52215257 90.98445583 -117.60624179 92.73106559 -121.15234375 93.37109375 C-125.38524639 93.37761594 -128.02798326 93.35867643 -131.75 91.1875 C-134.22941878 88.39815387 -135.62014343 86.3226368 -135.97265625 82.5625 C-135.46568704 74.25315093 -132.40903396 68.7201491 -127.75 61.9375 C-127.34378418 61.33808594 -126.93756836 60.73867187 -126.51904297 60.12109375 C-104.4945534 27.99551856 -72.0113017 5.61195919 -33.75 -2.0625 C-8.5141882 -6.38564115 -8.5141882 -6.38564115 0 0 Z " fill="#5D1E31" transform="translate(219.75,142.0625)"/>
<path d="M0 0 C0.99 0.66 1.98 1.32 3 2 C-6.948052 6.974026 -22.72243305 5.26766965 -33.68334961 5.15112305 C-35.25746699 5.14229925 -36.83158973 5.13439375 -38.40571594 5.12731934 C-42.61556687 5.10573779 -46.8252148 5.07120649 -51.03495097 5.03379035 C-55.46169521 4.99646109 -59.88850851 4.97053935 -64.31532288 4.94306946 C-71.72777741 4.89541718 -79.14013525 4.8396994 -86.55249023 4.77856445 C-95.12103181 4.70795041 -103.68959463 4.64825539 -112.25825876 4.59470528 C-121.40848467 4.53743668 -130.55864625 4.47270408 -139.70880437 4.40554833 C-142.33974276 4.38671947 -144.97068732 4.36924656 -147.60163689 4.3520565 C-151.72304635 4.32473135 -155.84438685 4.29238271 -159.96572685 4.25609589 C-161.47866014 4.24352992 -162.99160829 4.23262979 -164.50456619 4.22349739 C-166.56515962 4.21076394 -168.62561162 4.1920154 -170.68614197 4.17167664 C-171.83989287 4.16262645 -172.99364378 4.15357626 -174.18235683 4.14425182 C-177 4 -177 4 -180 3 C-180 3.66 -180 4.32 -180 5 C-184.455 4.01 -184.455 4.01 -189 3 C-189 2.67 -189 2.34 -189 2 C-188.03202012 1.99576806 -187.06404024 1.99153612 -186.06672764 1.98717594 C-162.54957109 1.88413375 -139.03244611 1.77540512 -115.51534367 1.66066074 C-104.14280809 1.60530463 -92.77026938 1.55181878 -81.39770508 1.50268555 C-71.48921164 1.4598729 -61.58074152 1.41360239 -51.67228407 1.36312145 C-46.42238463 1.33649692 -41.1724899 1.31164335 -35.92256355 1.29092598 C-30.98720736 1.27139546 -26.05189565 1.24726265 -21.11657906 1.21950912 C-19.2996552 1.21011962 -17.48272156 1.20245123 -15.66578293 1.19658089 C-13.19629314 1.18835182 -10.72691228 1.17408449 -8.25746155 1.15821838 C-7.52887611 1.15724028 -6.80029067 1.15626217 -6.04962689 1.15525442 C-2.741404 1.41321864 -2.741404 1.41321864 0 0 Z " fill="#51222D" transform="translate(297,411)"/>
<path d="M0 0 C0.66686325 0.00639496 1.3337265 0.01278992 2.02079773 0.01937866 C4.2309248 0.04220731 6.44085862 0.07280792 8.65087891 0.10424805 C10.18543285 0.12347693 11.71998897 0.14253284 13.25454712 0.16142273 C16.47428367 0.20244189 19.69393068 0.24766728 22.91357422 0.29541016 C27.03833287 0.35594142 31.16312145 0.40288417 35.28809166 0.44624043 C38.4589173 0.48162013 41.62957426 0.52585683 44.80025101 0.57259178 C46.320838 0.59362911 47.84147168 0.61153385 49.36213303 0.6262455 C51.49037076 0.64784412 53.61807537 0.68176211 55.74609375 0.71875 C56.95695648 0.73508987 58.16781921 0.75142975 59.41537476 0.76826477 C62.3400159 1.03846094 64.03481896 1.52215097 66.50244141 3.0534668 C25.62322978 3.78831556 -15.25342847 4.18036867 -56.13935089 4.23513794 C-59.43176253 4.24096097 -62.72414176 4.25066573 -66.01654053 4.26147461 C-71.24706461 4.2781209 -76.47750229 4.28436721 -81.70805168 4.28266335 C-83.64336522 4.28350027 -85.57868062 4.28763866 -87.51397896 4.29535484 C-105.69019367 4.36240453 -105.69019367 4.36240453 -114.49755859 2.0534668 C-114.49755859 1.7234668 -114.49755859 1.3934668 -114.49755859 1.0534668 C-113.95310656 1.05438859 -113.40865452 1.05531038 -112.84770393 1.05626011 C-99.61151688 1.07832632 -86.37533304 1.09481994 -73.13913155 1.10527897 C-66.73825522 1.1105063 -60.33739214 1.11760125 -53.93652344 1.12890625 C-47.7638829 1.13974042 -41.59125512 1.14574477 -35.4186058 1.14834404 C-33.05899733 1.15019733 -30.69938959 1.15381611 -28.33978653 1.15919685 C-25.04486815 1.16641428 -21.75000309 1.16745744 -18.45507812 1.16699219 C-17.47109039 1.17058746 -16.48710266 1.17418274 -15.47329712 1.17788696 C-14.57864746 1.1765123 -13.6839978 1.17513763 -12.76223755 1.17372131 C-11.59248225 1.175104 -11.59248225 1.175104 -10.39909554 1.17651463 C-6.78606799 0.9427168 -3.87560776 -0.04471843 0 0 Z " fill="#4D212D" transform="translate(224.49755859375,431.946533203125)"/>
<path d="M0 0 C0.93062256 -0.00410889 1.86124512 -0.00821777 2.82006836 -0.01245117 C3.8178833 -0.00318604 4.81569824 0.0060791 5.84375 0.015625 C6.87314697 0.02166748 7.90254395 0.02770996 8.96313477 0.03393555 C24.02079433 0.22553837 38.6182468 2.21896917 53.34375 5.265625 C53.34375 5.595625 53.34375 5.925625 53.34375 6.265625 C51.36375 6.265625 49.38375 6.265625 47.34375 6.265625 C47.01375 6.925625 46.68375 7.585625 46.34375 8.265625 C45.68375 7.605625 45.02375 6.945625 44.34375 6.265625 C42.04592235 5.83978939 42.04592235 5.83978939 39.46875 5.703125 C36.9924283 5.52202088 34.68104258 5.35153915 32.2734375 4.73828125 C30.02734638 4.10702061 30.02734638 4.10702061 26.34375 4.265625 C22.34375 4.265625 22.34375 4.265625 20.5 3.765625 C17.57672753 3.08776472 14.84173262 3.2116073 11.84375 3.265625 C5.2877252 3.32060215 -1.13747862 2.93421694 -7.65625 2.265625 C-4.47067301 0.14190701 -3.65447247 0.00996933 0 0 Z " fill="#6E4853" transform="translate(205.65625,70.734375)"/>
<path d="M0 0 C4.29 0 8.58 0 13 0 C13.33 0.66 13.66 1.32 14 2 C16.02463255 2.65213292 16.02463255 2.65213292 18 3 C18 2.34 18 1.68 18 1 C23.94 1.99 23.94 1.99 30 3 C30 3.66 30 4.32 30 5 C24.78557724 5.0494186 19.57129066 5.08572831 14.35668945 5.10986328 C12.58257676 5.11992411 10.80848065 5.13357422 9.03442383 5.15087891 C6.48514716 5.17512378 3.93608963 5.18648218 1.38671875 5.1953125 C0.19594978 5.21079636 0.19594978 5.21079636 -1.01887512 5.22659302 C-4.88223043 5.2273811 -6.70839446 5.19440369 -10 3 C-6.7 2.34 -3.4 1.68 0 1 C0 0.67 0 0.34 0 0 Z " fill="#511D2D" transform="translate(202,90)"/>
<path d="M0 0 C0.66 0.66 1.32 1.32 2 2 C1.9765625 4.4609375 1.9765625 4.4609375 1.625 7.375 C1.2455447 10.64890504 1 13.69188801 1 17 C0.67 17.99 0.34 18.98 0 20 C0.66 20 1.32 20 2 20 C2 21.65 2 23.3 2 25 C1.34 25.33 0.68 25.66 0 26 C0 25.01 0 24.02 0 23 C-0.33 23.99 -0.66 24.98 -1 26 C-1.66 26 -2.32 26 -3 26 C-3 26.66 -3 27.32 -3 28 C-3.66 28 -4.32 28 -5 28 C-5.9739744 17.97888557 -3.08136467 9.38715736 0 0 Z " fill="#551C2B" transform="translate(14,213)"/>
<path d="M0 0 C-0.33 1.32 -0.66 2.64 -1 4 C-2.65 4 -4.3 4 -6 4 C-6.33 5.32 -6.66 6.64 -7 8 C-7.66 8 -8.32 8 -9 8 C-9.33 8.99 -9.66 9.98 -10 11 C-12.89558441 12.4477922 -14.74188938 13 -18 13 C-18 14.65 -18 16.3 -18 18 C-18.66 18.33 -19.32 18.66 -20 19 C-20 18.34 -20 17.68 -20 17 C-21.65 17 -23.3 17 -25 17 C-19.62919134 11.07359045 -8.41457058 0 0 0 Z " fill="#5A2B37" transform="translate(145,156)"/>
<path d="M0 0 C2.64 0.33 5.28 0.66 8 1 C8 1.66 8 2.32 8 3 C9.65 2.67 11.3 2.34 13 2 C12.67 2.99 12.34 3.98 12 5 C12.60328125 5.09796875 13.2065625 5.1959375 13.828125 5.296875 C18.70578282 6.20946904 21.83823388 6.87595723 25 11 C19.02798909 10.46870624 14.05383257 9.15389059 8.5 6.9375 C7.77296875 6.65583984 7.0459375 6.37417969 6.296875 6.08398438 C4.52808745 5.39741552 2.76356959 4.69986318 1 4 C1.66 3.67 2.32 3.34 3 3 C2.01 2.01 1.02 1.02 0 0 Z " fill="#693746" transform="translate(331,282)"/>
<path d="M0 0 C1.07636719 0.00322266 2.15273438 0.00644531 3.26171875 0.00976562 C4.38964844 0.01814453 5.51757812 0.02652344 6.6796875 0.03515625 C7.81535156 0.03966797 8.95101563 0.04417969 10.12109375 0.04882812 C12.93234388 0.0606401 15.7434898 0.07711118 18.5546875 0.09765625 C18.5546875 1.08765625 18.5546875 2.07765625 18.5546875 3.09765625 C10.3046875 3.09765625 2.0546875 3.09765625 -6.4453125 3.09765625 C-6.7753125 2.43765625 -7.1053125 1.77765625 -7.4453125 1.09765625 C-4.83580014 -0.20709993 -2.91829965 -0.01535947 0 0 Z " fill="#521C2B" transform="translate(381.4453125,291.90234375)"/>
<path d="M0 0 C0.66 0.66 1.32 1.32 2 2 C1.86691494 4.62238062 1.61771313 7.09617382 1.25 9.6875 C1.15219238 10.43829834 1.05438477 11.18909668 0.95361328 11.96264648 C0.6457067 14.30987996 0.32303742 16.65480686 0 19 C-0.19649368 20.48682354 -0.39184761 21.97379826 -0.5859375 23.4609375 C-1.04629733 26.97548174 -1.51948449 30.48814731 -2 34 C-2.33 34 -2.66 34 -3 34 C-3.36743024 22.2422322 -2.62648176 11.47522388 0 0 Z " fill="#67444C" transform="translate(254,250)"/>
<path d="M0 0 C8.47191011 7.16853933 8.47191011 7.16853933 11 10 C11 10.66 11 11.32 11 12 C9.68 12 8.36 12 7 12 C6.34 10.68 5.68 9.36 5 8 C4.34 9.65 3.68 11.3 3 13 C1.68 12.67 0.36 12.34 -1 12 C-0.67 8.04 -0.34 4.08 0 0 Z " fill="#662B3C" transform="translate(442,203)"/>
<path d="M0 0 C2.89640118 -0.08120751 5.79050912 -0.14059421 8.6875 -0.1875 C9.50412109 -0.21263672 10.32074219 -0.23777344 11.16210938 -0.26367188 C16.11969505 -0.32388547 18.79726607 0.15399279 23 3 C23.99 2.67 24.98 2.34 26 2 C26 2.66 26 3.32 26 4 C28.475 4.495 28.475 4.495 31 5 C30.67 5.66 30.34 6.32 30 7 C24.16725436 6.2709068 18.63675332 4.96144053 12.9609375 3.4609375 C8.64916492 2.34553687 4.42065158 1.55258145 0 1 C0 0.67 0 0.34 0 0 Z " fill="#66434D" transform="translate(435,295)"/>
<path d="M0 0 C0 0.33 0 0.66 0 1 C-6.6 2.32 -13.2 3.64 -20 5 C-20 4.01 -20 3.02 -20 2 C-18.3962669 1.35309078 -16.79199694 0.70751236 -15.1875 0.0625 C-13.84751953 -0.47697266 -13.84751953 -0.47697266 -12.48046875 -1.02734375 C-7.06918211 -3.14924985 -5.28657143 -2.49366577 0 0 Z " fill="#653C46" transform="translate(196,164)"/>
<path d="M0 0 C7.11507003 -0.23545216 13.58906002 0.63392572 20.5625 2 C21.57119141 2.19078125 22.57988281 2.3815625 23.61914062 2.578125 C26.08091515 3.04481211 28.54101164 3.51888663 31 4 C31 4.33 31 4.66 31 5 C29.02 5 27.04 5 25 5 C24.67 5.66 24.34 6.32 24 7 C23.34 6.34 22.68 5.68 22 5 C19.70217235 4.57416439 19.70217235 4.57416439 17.125 4.4375 C12.34515514 4.08792926 12.34515514 4.08792926 9.9453125 3.4765625 C7.81029033 2.95352494 5.94397012 2.90093383 3.75 2.9375 C2.5125 2.958125 1.275 2.97875 0 3 C0 2.01 0 1.02 0 0 Z " fill="#68434C" transform="translate(228,72)"/>
<path d="M0 0 C4.12498538 -0.02892385 8.24994485 -0.04677267 12.375 -0.0625 C14.1384375 -0.07506836 14.1384375 -0.07506836 15.9375 -0.08789062 C17.61972656 -0.09272461 17.61972656 -0.09272461 19.3359375 -0.09765625 C20.89127197 -0.10551147 20.89127197 -0.10551147 22.47802734 -0.11352539 C25 0 25 0 27 1 C28.99960012 1.039992 31.00047242 1.04346799 33 1 C33 1.33 33 1.66 33 2 C28.4161086 3.09315246 23.87488993 3.32282625 19.1875 3.5625 C18.39923828 3.60568359 17.61097656 3.64886719 16.79882812 3.69335938 C14.86605785 3.79878321 12.93304974 3.89983094 11 4 C11 3.34 11 2.68 11 2 C7.37 1.67 3.74 1.34 0 1 C0 0.67 0 0.34 0 0 Z " fill="#4E202D" transform="translate(372,274)"/>
<path d="M0 0 C0.33 0 0.66 0 1 0 C1.04898437 1.01835937 1.09796875 2.03671875 1.1484375 3.0859375 C1.70067369 13.77993395 2.71941319 24.36988623 4 35 C2 32 2 32 1 29 C0.34 28.34 -0.32 27.68 -1 27 C-1.16015625 24.8984375 -1.16015625 24.8984375 -1.0625 22.375 C-0.96261529 17.79362138 -1.32897967 13.52938721 -2 9 C-1.67 9 -1.34 9 -1 9 C-0.67 6.03 -0.34 3.06 0 0 Z " fill="#724D58" transform="translate(27,279)"/>
<path d="M0 0 C11.43227487 -0.38178283 22.64650681 0.78913248 34 2 C34 2.33 34 2.66 34 3 C30.37 3.66 26.74 4.32 23 5 C22.67 4.34 22.34 3.68 22 3 C14.74 2.67 7.48 2.34 0 2 C0 1.34 0 0.68 0 0 Z " fill="#76545B" transform="translate(418,271)"/>
<path d="M0 0 C1.13926922 3.41780766 1.49161148 5.41825919 1 9 C-0.70047054 11.37312503 -2.58969379 13.34621325 -5 15 C-5.99 15 -6.98 15 -8 15 C-6.51194289 9.19657726 -3.40902445 4.82409121 0 0 Z " fill="#693848" transform="translate(268,222)"/>
<path d="M0 0 C0.33 0 0.66 0 1 0 C1.2273005 1.64332122 1.43063978 3.28995812 1.625 4.9375 C1.74101563 5.85402344 1.85703125 6.77054688 1.9765625 7.71484375 C1.9967961 10.5509197 1.72238554 12.5098568 1.0625 15.21875 C-0.1761509 20.32724658 -0.44050024 25.32347548 -0.625 30.5625 C-0.66367188 31.47580078 -0.70234375 32.38910156 -0.7421875 33.33007812 C-0.83530252 35.55319924 -0.92112166 37.77633613 -1 40 C-1.33 40 -1.66 40 -2 40 C-2.24715514 26.49772472 -1.85057896 13.38365142 0 0 Z " fill="#86656E" transform="translate(6,246)"/>
<path d="M0 0 C-1.50912958 4.98012761 -4.55661849 8.24259942 -8 12 C-9.32 11.34 -10.64 10.68 -12 10 C-11.34 9.67 -10.68 9.34 -10 9 C-9.835 7.845 -9.67 6.69 -9.5 5.5 C-9.335 4.345 -9.17 3.19 -9 2 C-8.34 1.67 -7.68 1.34 -7 1 C-6.67 1.66 -6.34 2.32 -6 3 C-5.071875 2.2575 -5.071875 2.2575 -4.125 1.5 C-2 0 -2 0 0 0 Z " fill="#693647" transform="translate(402,384)"/>
<path d="M0 0 C2.31 0.33 4.62 0.66 7 1 C6.67 1.7425 6.34 2.485 6 3.25 C5.07161592 6.73144031 4.92605198 9.13337352 5 12.6875 C5.11979854 18.66993965 4.28506755 24.17130076 3 30 C2.34 30 1.68 30 1 30 C1.23771118 29.18450684 1.23771118 29.18450684 1.48022461 28.35253906 C2.07600981 25.65597437 2.21364305 23.11930105 2.31640625 20.359375 C2.35830078 19.28945313 2.40019531 18.21953125 2.44335938 17.1171875 C2.48267578 16.00601562 2.52199219 14.89484375 2.5625 13.75 C2.60568359 12.62335938 2.64886719 11.49671875 2.69335938 10.3359375 C2.79932015 7.55741046 2.90139142 4.77879609 3 2 C2.01 2 1.02 2 0 2 C0 1.34 0 0.68 0 0 Z " fill="#4F1F2D" transform="translate(401,293)"/>
<path d="M0 0 C0.66 0.99 1.32 1.98 2 3 C0.89880248 7.8452691 -1.46973206 11.78288677 -4 16 C-4.66 15.34 -5.32 14.68 -6 14 C-5.86589799 8.36771547 -3.08717122 4.48835963 0 0 Z " fill="#672E38" transform="translate(91,206)"/>
<path d="M0 0 C0.33 0.66 0.66 1.32 1 2 C-3.12729823 3.00627462 -6.94864996 3.07146639 -11.1875 3 C-15.75841669 2.73904914 -15.75841669 2.73904914 -20 4 C-21.87379605 4.07033769 -23.75001102 4.0843022 -25.625 4.0625 C-26.62789062 4.05347656 -27.63078125 4.04445312 -28.6640625 4.03515625 C-29.43492187 4.02355469 -30.20578125 4.01195312 -31 4 C-31 3.67 -31 3.34 -31 3 C-20.64457353 0.93692664 -10.56117544 -0.17313402 0 0 Z " fill="#785C62" transform="translate(212,138)"/>
<path d="M0 0 C0.33 0.99 0.66 1.98 1 3 C-1.52699498 5.79774445 -3.20290615 7.47626292 -7 8 C-7.33 8 -7.66 8 -8 8 C-8.33 8.33 -8.66 8.66 -9 9 C-10.66617115 9.04063832 -12.33388095 9.042721 -14 9 C-10.73787201 5.33010602 -5.2007339 0 0 0 Z " fill="#652F44" transform="translate(102,103)"/>
<path d="M0 0 C4.45673159 0.49871064 6.57687178 2.02004362 9.8125 5.0625 C10.60269531 5.79597656 11.39289063 6.52945312 12.20703125 7.28515625 C13.09455078 8.13400391 13.09455078 8.13400391 14 9 C11 10 11 10 9.125 9.125 C8.42375 8.75375 7.7225 8.3825 7 8 C5.34259285 7.62331656 3.67654729 7.27942455 2 7 C2.33 5.35 2.66 3.7 3 2 C2.01 2.33 1.02 2.66 0 3 C0 2.01 0 1.02 0 0 Z " fill="#704751" transform="translate(282,304)"/>
<path d="M0 0 C0.66 0.33 1.32 0.66 2 1 C-0.31 7.27 -2.62 13.54 -5 20 C-5.66 19.34 -6.32 18.68 -7 18 C-6.9765625 15.8359375 -6.9765625 15.8359375 -6.625 13.375 C-6.51414063 12.55773437 -6.40328125 11.74046875 -6.2890625 10.8984375 C-6.19367187 10.27195313 -6.09828125 9.64546875 -6 9 C-5.01 8.67 -4.02 8.34 -3 8 C-2.67 6.35 -2.34 4.7 -2 3 C-1.34 3 -0.68 3 0 3 C0 2.01 0 1.02 0 0 Z " fill="#6A444E" transform="translate(42,203)"/>
<path d="M0 0 C-2 3 -2 3 -4.27734375 3.765625 C-5.15519531 3.92546875 -6.03304687 4.0853125 -6.9375 4.25 C-7.81277344 4.42015625 -8.68804687 4.5903125 -9.58984375 4.765625 C-12 5 -12 5 -15 4 C-10.56846944 -1.13124592 -6.43294341 -1.26136145 0 0 Z " fill="#5E3041" transform="translate(138,88)"/>
<path d="M0 0 C-7.22389676 3.29230693 -14.13867147 4.97343476 -22 6 C-21.34 5.67 -20.68 5.34 -20 5 C-20 4.34 -20 3.68 -20 3 C-17.23132003 2.30259196 -14.46063138 1.61677147 -11.6875 0.9375 C-10.90181641 0.73833984 -10.11613281 0.53917969 -9.30664062 0.33398438 C-8.54931641 0.15029297 -7.79199219 -0.03339844 -7.01171875 -0.22265625 C-6.31522217 -0.39547119 -5.61872559 -0.56828613 -4.90112305 -0.74633789 C-3 -1 -3 -1 0 0 Z " fill="#704B55" transform="translate(364,415)"/>
<path d="M0 0 C0.99 0.66 1.98 1.32 3 2 C3 2.66 3 3.32 3 4 C3.556875 4.20625 4.11375 4.4125 4.6875 4.625 C7.92501302 6.55000774 9.68231141 9.03850902 12 12 C7.25 11.125 7.25 11.125 5 10 C5 9.01 5 8.02 5 7 C4.01 6.67 3.02 6.34 2 6 C2 5.34 2 4.68 2 4 C-0.97 3.505 -0.97 3.505 -4 3 C-3.34 2.34 -2.68 1.68 -2 1 C-1.34 1.33 -0.68 1.66 0 2 C0 1.34 0 0.68 0 0 Z " fill="#7D5B65" transform="translate(296,228)"/>
<path d="M0 0 C0.66 0 1.32 0 2 0 C2.66 1.32 3.32 2.64 4 4 C4.66 3.67 5.32 3.34 6 3 C7.45606519 7.52092968 6.27032841 10.51648796 5 15 C3.25050228 12.37575342 2.34610019 10.44272784 1.375 7.5 C0.98441406 6.33984375 0.98441406 6.33984375 0.5859375 5.15625 C0 3 0 3 0 0 Z " fill="#6C404D" transform="translate(14,341)"/>
<path d="M0 0 C0.66 0 1.32 0 2 0 C2 0.66 2 1.32 2 2 C4.64 2.33 7.28 2.66 10 3 C10 4.32 10 5.64 10 7 C4.80790596 7.21192221 0.873261 6.5912689 -4 5 C-3.01 4.67 -2.02 4.34 -1 4 C-0.26676204 1.98491642 -0.26676204 1.98491642 0 0 Z " fill="#501A2A" transform="translate(428,288)"/>
<path d="M0 0 C2.95380149 3.46307761 5.31817969 6.75119081 7 11 C6.6875 13.875 6.6875 13.875 6 16 C4 14.375 4 14.375 2 12 C1.75 8.75 1.75 8.75 2 6 C1.34 6 0.68 6 0 6 C-1.125 2.25 -1.125 2.25 0 0 Z " fill="#65344C" transform="translate(468,234)"/>
<path d="M0 0 C3.23060419 0.55700072 5.0658223 1.29215122 7 4 C7.1875 6.6875 7.1875 6.6875 7 9 C5.68 8.67 4.36 8.34 3 8 C3 8.66 3 9.32 3 10 C3.66 10.33 4.32 10.66 5 11 C3.68 11.33 2.36 11.66 1 12 C0.67 11.01 0.34 10.02 0 9 C0.66 8.34 1.32 7.68 2 7 C1.73323796 5.01508358 1.73323796 5.01508358 1 3 C0.67 2.01 0.34 1.02 0 0 Z " fill="#491726" transform="translate(432,196)"/>
<path d="M0 0 C0.33 0.66 0.66 1.32 1 2 C0.06421005 4.35981813 -0.93347808 6.69631264 -2 9 C-1.34 9.33 -0.68 9.66 0 10 C-1.32 11.32 -2.64 12.64 -4 14 C-4.66 13.67 -5.32 13.34 -6 13 C-5.51675181 7.84535266 -2.81389239 4.18449681 0 0 Z M1 6 C1.66 6.33 2.32 6.66 3 7 C2.01 7.66 1.02 8.32 0 9 C0.33 8.01 0.66 7.02 1 6 Z " fill="#673A4B" transform="translate(40,161)"/>
<path d="M0 0 C0.99 0.33 1.98 0.66 3 1 C3.33 3.31 3.66 5.62 4 8 C4.99 8 5.98 8 7 8 C6.67 8.66 6.34 9.32 6 10 C3.8125 9.9375 3.8125 9.9375 1 9 C-0.93157957 6.8282781 -2.48201687 4.47398953 -4 2 C-2.68 1.67 -1.36 1.34 0 1 C0 0.67 0 0.34 0 0 Z " fill="#6A3245" transform="translate(348,148)"/>
<path d="M0 0 C0.66 0.33 1.32 0.66 2 1 C-1.14484858 4.45545091 -4.47784913 5.95198328 -9 7 C-11.49817544 6.95773763 -13.54519822 6.56255874 -16 6 C-15.67 5.34 -15.34 4.68 -15 4 C-12.890625 3.4375 -12.890625 3.4375 -10.25 3 C-6.58759283 2.34599872 -3.44923002 1.40124969 0 0 Z " fill="#6D4C55" transform="translate(357,391)"/>
<path d="M0 0 C0.99 0.33 1.98 0.66 3 1 C4.08166759 3.41295078 4.10258364 4.64095726 3.375 7.1875 C2 9 2 9 -0.0625 9.75 C-4.04802192 10.08919335 -8.00297737 10.07837299 -12 10 C-12 9.67 -12 9.34 -12 9 C-5.565 8.505 -5.565 8.505 1 8 C0.34 6.68 -0.32 5.36 -1 4 C-0.625 1.75 -0.625 1.75 0 0 Z " fill="#653B4B" transform="translate(356,162)"/>
<path d="M0 0 C0.99 0.66 1.98 1.32 3 2 C5.50896686 2.45601261 5.50896686 2.45601261 8.1875 2.625 C9.08855469 2.69976562 9.98960937 2.77453125 10.91796875 2.8515625 C11.60503906 2.90054687 12.29210937 2.94953125 13 3 C13 3.33 13 3.66 13 4 C11.93072266 4.07347656 11.93072266 4.07347656 10.83984375 4.1484375 C5.29491509 4.58128523 0.27913551 5.24028816 -5 7 C-4.75 4.625 -4.75 4.625 -4 2 C-1.9375 0.6875 -1.9375 0.6875 0 0 Z " fill="#6F4C54" transform="translate(325,418)"/>
<path d="M0 0 C0.33 0 0.66 0 1 0 C1 1.65 1 3.3 1 5 C1.66 5.33 2.32 5.66 3 6 C2.57847656 6.48210937 2.15695313 6.96421875 1.72265625 7.4609375 C1.17480469 8.09257812 0.62695312 8.72421875 0.0625 9.375 C-0.48277344 10.00148437 -1.02804688 10.62796875 -1.58984375 11.2734375 C-3.06958624 12.95632334 -3.06958624 12.95632334 -4 15 C-4.66 15 -5.32 15 -6 15 C-4.36041242 9.76727367 -2.61047965 4.84803364 0 0 Z " fill="#75545D" transform="translate(26,184)"/>
<path d="M0 0 C1.32 0.33 2.64 0.66 4 1 C4.19573608 2.43640171 4.38127816 3.87419504 4.5625 5.3125 C4.66691406 6.11300781 4.77132812 6.91351563 4.87890625 7.73828125 C5 10 5 10 4 13 C3.01 13 2.02 13 1 13 C0.67 8.71 0.34 4.42 0 0 Z " fill="#68424F" transform="translate(218,144)"/>
<path d="M0 0 C-0.66 1.98 -1.32 3.96 -2 6 C-3.45792884 6.05399736 -4.91642712 6.09279177 -6.375 6.125 C-7.18710937 6.14820313 -7.99921875 6.17140625 -8.8359375 6.1953125 C-11 6 -11 6 -13 4 C-11.39850114 3.32694982 -9.79368971 2.66177773 -8.1875 2 C-7.29417969 1.62875 -6.40085937 1.2575 -5.48046875 0.875 C-3 0 -3 0 0 0 Z " fill="#6D3548" transform="translate(330,176)"/>
<path d="M0 0 C0.85851562 0.36931641 0.85851562 0.36931641 1.734375 0.74609375 C1.074375 2.06609375 0.414375 3.38609375 -0.265625 4.74609375 C-1.255625 4.74609375 -2.245625 4.74609375 -3.265625 4.74609375 C-3.265625 5.40609375 -3.265625 6.06609375 -3.265625 6.74609375 C-3.925625 6.74609375 -4.585625 6.74609375 -5.265625 6.74609375 C-5.595625 7.40609375 -5.925625 8.06609375 -6.265625 8.74609375 C-7.585625 8.41609375 -8.905625 8.08609375 -10.265625 7.74609375 C-9.03163437 6.37732259 -7.77781877 5.02640209 -6.515625 3.68359375 C-5.81953125 2.92949219 -5.1234375 2.17539063 -4.40625 1.3984375 C-2.265625 -0.25390625 -2.265625 -0.25390625 0 0 Z " fill="#571F2C" transform="translate(75.265625,123.25390625)"/>
<path d="M0 0 C2.33528415 0.17298401 3.69177582 0.70225369 5.37890625 2.33203125 C9 6.57211538 9 6.57211538 9 9 C7.35 9.33 5.7 9.66 4 10 C4 8.68 4 7.36 4 6 C3.34 6 2.68 6 2 6 C1.34 4.02 0.68 2.04 0 0 Z " fill="#63313A" transform="translate(368,146)"/>
<path d="M0 0 C0.66 0.33 1.32 0.66 2 1 C2 7.27 2 13.54 2 20 C-0.46662244 16.30006635 -0.47969937 13.17458392 -0.6875 8.875 C-0.73455078 8.13378906 -0.78160156 7.39257812 -0.83007812 6.62890625 C-0.93458359 4.75466073 -0.97270642 2.87695837 -1 1 C-0.67 0.67 -0.34 0.34 0 0 Z " fill="#613D48" transform="translate(26,255)"/>
<path d="M0 0 C1.32 0 2.64 0 4 0 C3.69381595 3.67420866 3.24228216 4.78135513 0.4375 7.3125 C-0.366875 7.869375 -1.17125 8.42625 -2 9 C-2.66 7.68 -3.32 6.36 -4 5 C-3.34 4.67 -2.68 4.34 -2 4 C-0.86649466 1.98330173 -0.86649466 1.98330173 0 0 Z " fill="#471B29" transform="translate(131,188)"/>
<path d="M0 0 C0.33 0.66 0.66 1.32 1 2 C1.66 2 2.32 2 3 2 C3.33 1.34 3.66 0.68 4 0 C4.125 7.625 4.125 7.625 3 11 C2.01 11 1.02 11 0 11 C0 7.37 0 3.74 0 0 Z " fill="#602E3C" transform="translate(321,363)"/>
<path d="M0 0 C0.66 0 1.32 0 2 0 C2.33 0.66 2.66 1.32 3 2 C3.33 1.34 3.66 0.68 4 0 C4.66 0 5.32 0 6 0 C6.33 0.99 6.66 1.98 7 3 C7.33 3.33 7.66 3.66 8 4 C7.71395102 5.67542976 7.38218767 7.34385343 7 9 C4.13998967 7.71792641 1.92960588 6.50848764 0 4 C0 2.68 0 1.36 0 0 Z " fill="#401421" transform="translate(335,137)"/>
<path d="M0 0 C-0.33 0.66 -0.66 1.32 -1 2 C-0.01 2.99 0.98 3.98 2 5 C-0.375 5.625 -0.375 5.625 -3 6 C-3.66 5.34 -4.32 4.68 -5 4 C-7.10820797 4.3185177 -7.10820797 4.3185177 -9 5 C-9 3.68 -9 2.36 -9 1 C-6.04335481 -0.4783226 -3.25770263 -0.06032783 0 0 Z " fill="#682C3E" transform="translate(137,105)"/>
<path d="M0 0 C2 0 2 0 3.6875 1.5625 C5.52326619 4.97178007 4.78222319 7.30221767 4 11 C2.68 10.67 1.36 10.34 0 10 C0.66 9.67 1.32 9.34 2 9 C1.2236068 5.9254644 1.2236068 5.9254644 -1 4 C-0.625 1.875 -0.625 1.875 0 0 Z " fill="#69303F" transform="translate(57,379)"/>
<path d="M0 0 C0.556875 0.680625 0.556875 0.680625 1.125 1.375 C3.53058529 3.45984059 5.99880775 4.02135035 9 5 C9.33 5.66 9.66 6.32 10 7 C5.83783725 7.32644414 3.63686538 7.40650982 0.0625 5.125 C-2 3 -2 3 -2 1 C-1.34 0.67 -0.68 0.34 0 0 Z " fill="#623542" transform="translate(88,228)"/>
<path d="M0 0 C0.66 0.33 1.32 0.66 2 1 C2 1.66 2 2.32 2 3 C3.32 3.66 4.64 4.32 6 5 C5.34 6.32 4.68 7.64 4 9 C3.67 8.67 3.34 8.34 3 8 C2.67 8.66 2.34 9.32 2 10 C1.34 10 0.68 10 0 10 C-1.01268859 6.20241779 -1.01268859 3.79758221 0 0 Z " fill="#59192A" transform="translate(18,204)"/>
<path d="M0 0 C1.98 0 3.96 0 6 0 C6 0.99 6 1.98 6 3 C6.66 3.33 7.32 3.66 8 4 C8 4.99 8 5.98 8 7 C4.12867972 6.42647107 1.91827204 4.51295648 -1 2 C-0.67 1.34 -0.34 0.68 0 0 Z " fill="#5A303C" transform="translate(410,204)"/>
<path d="M0 0 C2.97 0.99 5.94 1.98 9 3 C8.01 3.495 8.01 3.495 7 4 C7 4.66 7 5.32 7 6 C5.1875 6.6875 5.1875 6.6875 3 7 C1.25 5.8125 1.25 5.8125 0 4 C0 2.68 0 1.36 0 0 Z " fill="#63243A" transform="translate(402,176)"/>
<path d="M0 0 C9.17286652 0.35010941 9.17286652 0.35010941 12.625 3.0625 C13.07875 3.701875 13.5325 4.34125 14 5 C9.03083364 4.48594831 4.70973649 3.76615118 0 2 C0 1.34 0 0.68 0 0 Z " fill="#6C4751" transform="translate(342,288)"/>
<path d="M0 0 C2.31 0.33 4.62 0.66 7 1 C6.67 2.98 6.34 4.96 6 7 C5.01 6.67 4.02 6.34 3 6 C3 5.67 3 5.34 3 5 C1.68 4.67 0.36 4.34 -1 4 C-0.67 2.68 -0.34 1.36 0 0 Z " fill="#59172B" transform="translate(289,104)"/>
<path d="M0 0 C1.5 1.3125 1.5 1.3125 3 3 C3 3.99 3 4.98 3 6 C2.01 6 1.02 6 0 6 C0 7.98 0 9.96 0 12 C-0.99 12.495 -0.99 12.495 -2 13 C-2 9.04 -2 5.08 -2 1 C-1.34 0.67 -0.68 0.34 0 0 Z " fill="#551A29" transform="translate(418,339)"/>
<path d="M0 0 C0.33 0 0.66 0 1 0 C1.33 3.63 1.66 7.26 2 11 C0.68 11 -0.64 11 -2 11 C-3.125 7.6875 -3.125 7.6875 -4 4 C-3.34 3.01 -2.68 2.02 -2 1 C-1.67 2.98 -1.34 4.96 -1 7 C-0.67 4.69 -0.34 2.38 0 0 Z " fill="#521829" transform="translate(492,291)"/>
<path d="M0 0 C-0.33 0.99 -0.66 1.98 -1 3 C-6.94 3.495 -6.94 3.495 -13 4 C-13 3.34 -13 2.68 -13 2 C-8.49646738 0.24252386 -4.82360189 -0.19294408 0 0 Z " fill="#633C46" transform="translate(213,160)"/>
<path d="M0 0 C0 0.66 0 1.32 0 2 C0.66 2.33 1.32 2.66 2 3 C1.67 3.66 1.34 4.32 1 5 C-2.3 4.01 -5.6 3.02 -9 2 C-8.67 1.34 -8.34 0.68 -8 0 C-2.55072464 -1.27536232 -2.55072464 -1.27536232 0 0 Z " fill="#69444F" transform="translate(279,103)"/>
<path d="M0 0 C6.93 0.495 6.93 0.495 14 1 C13.01 2.485 13.01 2.485 12 4 C9.1796875 4.29296875 9.1796875 4.29296875 5.875 4.1875 C4.23144531 4.14689453 4.23144531 4.14689453 2.5546875 4.10546875 C1.29011719 4.05326172 1.29011719 4.05326172 0 4 C0.66 3.34 1.32 2.68 2 2 C1.34 1.34 0.68 0.68 0 0 Z " fill="#744B57" transform="translate(364,272)"/>
<path d="M0 0 C0.66 0.33 1.32 0.66 2 1 C3.9959722 1.67863055 5.99568551 2.34641919 8 3 C8.33 2.01 8.66 1.02 9 0 C9 1.65 9 3.3 9 5 C8.39671875 4.97679687 7.7934375 4.95359375 7.171875 4.9296875 C6.37265625 4.91164062 5.5734375 4.89359375 4.75 4.875 C3.56664062 4.84019531 3.56664062 4.84019531 2.359375 4.8046875 C-0.20731941 5.0171622 -1.7916067 5.71345895 -4 7 C-4 5 -4 5 -2 3 C-2 2.34 -2 1.68 -2 1 C-1.34 0.67 -0.68 0.34 0 0 Z " fill="#5A1829" transform="translate(157,168)"/>
<path d="M0 0 C-4.625 5.75 -4.625 5.75 -8 8 C-8.99 7.67 -9.98 7.34 -11 7 C-10.34 6.67 -9.68 6.34 -9 6 C-8.54625 5.195625 -8.0925 4.39125 -7.625 3.5625 C-5.62633783 0.41076351 -3.68593867 -1.84296933 0 0 Z " fill="#561925" transform="translate(366,389)"/>
<path d="M0 0 C4.42857143 5.14285714 4.42857143 5.14285714 5 9 C4.01 9 3.02 9 2 9 C2 8.34 2 7.68 2 7 C1.01 6.67 0.02 6.34 -1 6 C-1.6875 3.9375 -1.6875 3.9375 -2 2 C-1.34 2 -0.68 2 0 2 C0 1.34 0 0.68 0 0 Z " fill="#673742" transform="translate(50,366)"/>
<path d="M0 0 C0.66 0 1.32 0 2 0 C2 2.31 2 4.62 2 7 C0.02 7.66 -1.96 8.32 -4 9 C-2.94124926 5.59687262 -1.99097846 2.98646769 0 0 Z " fill="#6A3A4D" transform="translate(394,353)"/>
<path d="M0 0 C3.08117952 3.49200345 4.88889538 6.454572 6 11 C5.67 11.66 5.34 12.32 5 13 C4.34 13 3.68 13 3 13 C2.690625 11.865625 2.38125 10.73125 2.0625 9.5625 C1.37075469 6.21224901 1.37075469 6.21224901 0 5 C-0.04063832 3.33382885 -0.042721 1.66611905 0 0 Z " fill="#6D4254" transform="translate(335,345)"/>
<path d="M0 0 C5.44693314 -0.09688221 10.63904667 -0.12862175 16 1 C16 1.33 16 1.66 16 2 C12.37 2.66 8.74 3.32 5 4 C4.67 3.34 4.34 2.68 4 2 C1.98330173 0.86649466 1.98330173 0.86649466 0 0 Z " fill="#6A424C" transform="translate(436,272)"/>
<path d="M0 0 C1.62723299 0.45034123 3.25173664 0.91055354 4.875 1.375 C5.77992188 1.63023437 6.68484375 1.88546875 7.6171875 2.1484375 C10 3 10 3 12 5 C9.03 5.66 6.06 6.32 3 7 C3.33 6.01 3.66 5.02 4 4 C2.68 3.34 1.36 2.68 0 2 C0 1.34 0 0.68 0 0 Z " fill="#744750" transform="translate(342,265)"/>
<path d="M0 0 C1.32 1.32 2.64 2.64 4 4 C3.01 4.495 3.01 4.495 2 5 C2.66 6.98 3.32 8.96 4 11 C3.34 11 2.68 11 2 11 C1.34 10.34 0.68 9.68 0 9 C-0.33 9 -0.66 9 -1 9 C-1.33 6.69 -1.66 4.38 -2 2 C-1.34 2 -0.68 2 0 2 C0 1.34 0 0.68 0 0 Z " fill="#581225" transform="translate(457,220)"/>
<path d="M0 0 C0.33 0 0.66 0 1 0 C1 6.27 1 12.54 1 19 C-0.32 19 -1.64 19 -3 19 C-2.67 17.68 -2.34 16.36 -2 15 C-1.67 15 -1.34 15 -1 15 C-0.67 10.05 -0.34 5.1 0 0 Z " fill="#4D1C2B" transform="translate(342,369)"/>
<path d="M0 0 C0.99 0 1.98 0 3 0 C3 0.66 3 1.32 3 2 C4.65 2.33 6.3 2.66 8 3 C7.67 3.66 7.34 4.32 7 5 C2.428721 4.45144652 -1.67435795 3.58255197 -6 2 C-6 1.67 -6 1.34 -6 1 C-4.02 1 -2.04 1 0 1 C0 0.67 0 0.34 0 0 Z " fill="#744F59" transform="translate(458,297)"/>
<path d="M0 0 C0 0.66 0 1.32 0 2 C-2.63892176 3.78305524 -4.97178863 4.99059621 -8 6 C-8.33 5.34 -8.66 4.68 -9 4 C-10.32 4 -11.64 4 -13 4 C-8.93662608 1.29108405 -4.89951609 0 0 0 Z " fill="#72374C" transform="translate(177,143)"/>
<path d="M0 0 C1.16402344 0.00773437 1.16402344 0.00773437 2.3515625 0.015625 C3.12242187 0.01046875 3.89328125 0.0053125 4.6875 0 C7.1757986 0.28874455 8.81890448 1.02423271 10.9765625 2.265625 C5.11866611 4.46233615 1.9355624 4.14741444 -4.0234375 2.265625 C-2.0234375 0.265625 -2.0234375 0.265625 0 0 Z " fill="#63293C" transform="translate(260.0234375,98.734375)"/>
<path d="M0 0 C0.99 0 1.98 0 3 0 C2.125 6.75 2.125 6.75 1 9 C-0.32 9 -1.64 9 -3 9 C-2.01 6.03 -1.02 3.06 0 0 Z " fill="#531B2C" transform="translate(339,390)"/>
<path d="M0 0 C0.66 0 1.32 0 2 0 C2.99 2.97 3.98 5.94 5 9 C4.01 9.33 3.02 9.66 2 10 C2 9.34 2 8.68 2 8 C1.34 8 0.68 8 0 8 C0 5.36 0 2.72 0 0 Z " fill="#6B3E46" transform="translate(480,257)"/>
<path d="M0 0 C0.66 0 1.32 0 2 0 C2.66 0.66 3.32 1.32 4 2 C3.8125 4 3.8125 4 3 6 C2.01 6.66 1.02 7.32 0 8 C-0.66 7.67 -1.32 7.34 -2 7 C-2.33 7.66 -2.66 8.32 -3 9 C-3 8.01 -3 7.02 -3 6 C-2.34 6 -1.68 6 -1 6 C-0.67 4.02 -0.34 2.04 0 0 Z " fill="#4B1925" transform="translate(89,133)"/>
<path d="M0 0 C1.093125 0.226875 2.18625 0.45375 3.3125 0.6875 C2.3225 1.0175 1.3325 1.3475 0.3125 1.6875 C-0.0175 2.6775 -0.3475 3.6675 -0.6875 4.6875 C-2.6675 4.0275 -4.6475 3.3675 -6.6875 2.6875 C-4.58035839 -0.41123767 -3.86755884 -0.32775922 0 0 Z " fill="#6C3B4B" transform="translate(304.6875,114.3125)"/>
<path d="M0 0 C-3.92074329 2.61382886 -7.44511017 2.29386386 -12 2 C-12.66 1.34 -13.32 0.68 -14 0 C-9.4440593 -3.09803967 -4.9275821 -1.64252737 0 0 Z " fill="#6B1C35" transform="translate(132,93)"/>
<path d="M0 0 C5.28 0.33 10.56 0.66 16 1 C16 1.33 16 1.66 16 2 C4.47835991 3.33257403 4.47835991 3.33257403 -1 2 C-0.67 1.34 -0.34 0.68 0 0 Z " fill="#745259" transform="translate(99,411)"/>
<path d="M0 0 C0.99 0.33 1.98 0.66 3 1 C3.06058594 1.62648438 3.12117187 2.25296875 3.18359375 2.8984375 C3.26738281 3.71570313 3.35117188 4.53296875 3.4375 5.375 C3.51871094 6.18710937 3.59992187 6.99921875 3.68359375 7.8359375 C3.89090114 10.04272805 3.89090114 10.04272805 5 12 C4.34 12.66 3.68 13.32 3 14 C2.49528803 12.23050388 1.99639315 10.45934777 1.5 8.6875 C1.2215625 7.70136719 0.943125 6.71523438 0.65625 5.69921875 C0 3 0 3 0 0 Z " fill="#714456" transform="translate(10,326)"/>
<path d="M0 0 C2.35964273 0.40683495 3.85934088 0.89814339 5.8125 2.3125 C7 4 7 4 6.6875 6.1875 C6.460625 6.785625 6.23375 7.38375 6 8 C5.01 7.34 4.02 6.68 3 6 C3 5.34 3 4.68 3 4 C2.34 4 1.68 4 1 4 C0.67 2.68 0.34 1.36 0 0 Z " fill="#512E38" transform="translate(288,251)"/>
<path d="M0 0 C5.49152542 0.61016949 5.49152542 0.61016949 7.875 2.4375 C9 4 9 4 9 6 C6.03 5.01 3.06 4.02 0 3 C0 2.01 0 1.02 0 0 Z " fill="#693C4F" transform="translate(393,196)"/>
<path d="M0 0 C-1.91599391 2.44821444 -2.97243029 2.99324823 -6.0625 3.75 C-9 4 -9 4 -11 3 C-8.21756596 -1.17365106 -4.53441502 -0.22300402 0 0 Z " fill="#6A3F4C" transform="translate(165,172)"/>
<path d="M0 0 C0.66 0.33 1.32 0.66 2 1 C2 1.66 2 2.32 2 3 C3.98 3 5.96 3 8 3 C8.33 4.32 8.66 5.64 9 7 C4.76570244 5.68938409 0.92592596 4.05643741 -3 2 C-2.01 1.34 -1.02 0.68 0 0 Z " fill="#7A5B65" transform="translate(289,109)"/>
<path d="M0 0 C5.75 1.75 5.75 1.75 8 4 C7.34 4.66 6.68 5.32 6 6 C4.68 6 3.36 6 2 6 C1.34 4.02 0.68 2.04 0 0 Z " fill="#6F4A53" transform="translate(296,89)"/>
<path d="M0 0 C2.64 0.66 5.28 1.32 8 2 C8 2.99 8 3.98 8 5 C3.545 4.01 3.545 4.01 -1 3 C-0.67 2.01 -0.34 1.02 0 0 Z " fill="#623D47" transform="translate(85,427)"/>
<path d="M0 0 C0.88863453 3.08155521 1.19260482 5.92043596 1.25 9.125 C1.27578125 9.99382812 1.3015625 10.86265625 1.328125 11.7578125 C1.21984375 12.49773437 1.1115625 13.23765625 1 14 C0.01 14.66 -0.98 15.32 -2 16 C-2.20674944 10.21101581 -1.59162079 5.57067277 0 0 Z " fill="#4F1F2D" transform="translate(7,258)"/>
<path d="M0 0 C1.45823212 -0.0270043 2.91660675 -0.04639787 4.375 -0.0625 C5.18710938 -0.07410156 5.99921875 -0.08570312 6.8359375 -0.09765625 C9 0 9 0 11 1 C11 1.66 11 2.32 11 3 C9.02 3.33 7.04 3.66 5 4 C4.67 3.34 4.34 2.68 4 2 C2.35 2 0.7 2 -1 2 C-0.67 1.34 -0.34 0.68 0 0 Z " fill="#653642" transform="translate(155,98)"/>
<path d="M0 0 C2.10409639 -0.02701408 4.20829178 -0.04640223 6.3125 -0.0625 C7.48425781 -0.07410156 8.65601563 -0.08570312 9.86328125 -0.09765625 C13 0 13 0 16 1 C16 1.66 16 2.32 16 3 C10.72 2.34 5.44 1.68 0 1 C0 0.67 0 0.34 0 0 Z " fill="#75575E" transform="translate(234,96)"/>
<path d="M0 0 C0 0.66 0 1.32 0 2 C-7.625 3.25 -7.625 3.25 -11 1 C-6.87831311 -0.62950412 -4.29299643 -1.26264601 0 0 Z " fill="#69464F" transform="translate(489,308)"/>
<path d="M0 0 C3.36720387 1.39332574 4.9859524 2.9789286 7 6 C6.34 6.66 5.68 7.32 5 8 C3.0625 7.375 3.0625 7.375 1 6 C0.25 2.875 0.25 2.875 0 0 Z " fill="#621620" transform="translate(307,240)"/>
<path d="M0 0 C1.65 1.32 3.3 2.64 5 4 C3.68 4.99 2.36 5.98 1 7 C1 6.34 1 5.68 1 5 C0.34 5 -0.32 5 -1 5 C-1.33 6.32 -1.66 7.64 -2 9 C-2.33 8.34 -2.66 7.68 -3 7 C-2.06421005 4.64018187 -1.06652192 2.30368736 0 0 Z " fill="#7A505D" transform="translate(259,237)"/>
<path d="M0 0 C1.32 0.66 2.64 1.32 4 2 C4 3.32 4 4.64 4 6 C2.35 5.67 0.7 5.34 -1 5 C-0.67 3.35 -0.34 1.7 0 0 Z " fill="#471825" transform="translate(452,215)"/>
<path d="M0 0 C0.99 0.99 1.98 1.98 3 3 C1.79618552 5.49361571 0.54571278 7.68143083 -1 10 C-2.23076923 4.58461538 -2.23076923 4.58461538 -1.0625 1.625 C-0.5365625 0.820625 -0.5365625 0.820625 0 0 Z " fill="#69434E" transform="translate(87,212)"/>
<path d="M0 0 C0.99 0.33 1.98 0.66 3 1 C2.67 1.66 2.34 2.32 2 3 C1.34 2.67 0.68 2.34 0 2 C-0.33 3.98 -0.66 5.96 -1 8 C-2.65 8 -4.3 8 -6 8 C-4.02 5.36 -2.04 2.72 0 0 Z " fill="#874459" transform="translate(105,187)"/>
<path d="M0 0 C1.32 0 2.64 0 4 0 C3.67 0.99 3.34 1.98 3 3 C2.34 2.67 1.68 2.34 1 2 C0.34 4.64 -0.32 7.28 -1 10 C-1.66 10 -2.32 10 -3 10 C-2.21302675 6.58978257 -1.12880057 3.31114834 0 0 Z " fill="#4B1B29" transform="translate(41,160)"/>
<path d="M0 0 C0.66 0.33 1.32 0.66 2 1 C1.6875 4.375 1.6875 4.375 1 8 C0.01 8.66 -0.98 9.32 -2 10 C-3.125 4.25 -3.125 4.25 -2 2 C-1.34 2 -0.68 2 0 2 C0 1.34 0 0.68 0 0 Z " fill="#5C1525" transform="translate(35,334)"/>
<path d="M0 0 C1.21236328 0.02707031 1.21236328 0.02707031 2.44921875 0.0546875 C3.37154297 0.08949219 3.37154297 0.08949219 4.3125 0.125 C4.6425 0.785 4.9725 1.445 5.3125 2.125 C0.70176889 3.42176812 -3.02590089 2.83609139 -7.6875 2.125 C-4.48369983 -0.01086678 -3.66810033 -0.10632175 0 0 Z " fill="#6A4B53" transform="translate(207.6875,137.875)"/>
<path d="M0 0 C1.65 1.32 3.3 2.64 5 4 C4.67 5.32 4.34 6.64 4 8 C3.01 8 2.02 8 1 8 C0.67 5.36 0.34 2.72 0 0 Z " fill="#3C1923" transform="translate(330,340)"/>
<path d="M0 0 C2.475 0.99 2.475 0.99 5 2 C4.67 2.99 4.34 3.98 4 5 C1.625 5.1875 1.625 5.1875 -1 5 C-1.66 4.01 -2.32 3.02 -3 2 C-2.01 2 -1.02 2 0 2 C0 1.34 0 0.68 0 0 Z " fill="#652E3B" transform="translate(284,328)"/>
<path d="M0 0 C2.4375 0.6875 2.4375 0.6875 5 2 C5.9375 4.5 5.9375 4.5 6 7 C5.34 7.66 4.68 8.32 4 9 C0 2.25 0 2.25 0 0 Z " fill="#7A3E55" transform="translate(258,303)"/>
<path d="M0 0 C0 0.99 0 1.98 0 3 C-1.98 3.33 -3.96 3.66 -6 4 C-6 4.66 -6 5.32 -6 6 C-6.66 5.67 -7.32 5.34 -8 5 C-7.67 3.68 -7.34 2.36 -7 1 C-4.50935112 0.31292445 -2.62113708 0 0 0 Z " fill="#692739" transform="translate(399,192)"/>
<path d="M0 0 C0.99 0 1.98 0 3 0 C2.67 2.64 2.34 5.28 2 8 C0.68 7.01 -0.64 6.02 -2 5 C-1.34 3.35 -0.68 1.7 0 0 Z " fill="#673840" transform="translate(29,179)"/>
<path d="M0 0 C-0.99 0 -1.98 0 -3 0 C-3.33 0.66 -3.66 1.32 -4 2 C-4.886875 1.979375 -5.77375 1.95875 -6.6875 1.9375 C-9.62169631 1.99286219 -12.15493696 2.3305734 -15 3 C-15 2.34 -15 1.68 -15 1 C-12.77888677 -0.11055662 -11.0853776 -0.33890958 -8.625 -0.625 C-7.85414063 -0.72039062 -7.08328125 -0.81578125 -6.2890625 -0.9140625 C-3.97179747 -1.0010588 -2.20658162 -0.67507292 0 0 Z " fill="#4B1C28" transform="translate(357,172)"/>
<path d="M0 0 C-0.33 1.32 -0.66 2.64 -1 4 C-2.65 4 -4.3 4 -6 4 C-6.33 4.99 -6.66 5.98 -7 7 C-7.66 6.67 -8.32 6.34 -9 6 C-9 5.34 -9 4.68 -9 4 C-2.25 0 -2.25 0 0 0 Z " fill="#743D47" transform="translate(145,156)"/>
<path d="M0 0 C3.79588866 0.54226981 5.47211993 2.20127563 8 5 C5.66666667 5 3.33333333 5 1 5 C1 4.34 1 3.68 1 3 C0.34 2.67 -0.32 2.34 -1 2 C-0.67 1.34 -0.34 0.68 0 0 Z M1 1 C2 3 2 3 2 3 Z " fill="#703247" transform="translate(331,111)"/>
<path d="M0 0 C0.66 0 1.32 0 2 0 C2 2.31 2 4.62 2 7 C0.68 6.67 -0.64 6.34 -2 6 C-1.125 1.125 -1.125 1.125 0 0 Z " fill="#623541" transform="translate(73,418)"/>
<path d="M0 0 C0.99 0 1.98 0 3 0 C2.67 3.96 2.34 7.92 2 12 C1.67 12 1.34 12 1 12 C1 9.03 1 6.06 1 3 C0.01 3.495 0.01 3.495 -1 4 C-0.67 2.68 -0.34 1.36 0 0 Z " fill="#6D4450" transform="translate(28,240)"/>
<path d="M0 0 C0.99 0.33 1.98 0.66 3 1 C2.01 1.495 2.01 1.495 1 2 C0.34444881 4.52733235 0.34444881 4.52733235 0 7 C-1.32 7.33 -2.64 7.66 -4 8 C-2.87548273 5.0280615 -1.77706209 2.66559313 0 0 Z " fill="#6A364E" transform="translate(69,156)"/>
<path d="M0 0 C-1.39332574 3.36720387 -2.9789286 4.9859524 -6 7 C-6 5.02 -6 3.04 -6 1 C-3.92446352 0.4465236 -2.15634036 0 0 0 Z " fill="#813D5E" transform="translate(89,140)"/>
<path d="M0 0 C-0.33 0.99 -0.66 1.98 -1 3 C-1.66 3 -2.32 3 -3 3 C-3.33 3.99 -3.66 4.98 -4 6 C-5.65 6 -7.3 6 -9 6 C-3.2 0 -3.2 0 0 0 Z " fill="#734B54" transform="translate(97,106)"/>
<path d="M0 0 C0.33 1.32 0.66 2.64 1 4 C-4.75 4.125 -4.75 4.125 -7 3 C-7 2.34 -7 1.68 -7 1 C-3.535 0.505 -3.535 0.505 0 0 Z " fill="#5F3642" transform="translate(288,106)"/>
<path d="M0 0 C0.66 0 1.32 0 2 0 C1.34 3.3 0.68 6.6 0 10 C-0.99 8.68 -1.98 7.36 -3 6 C-2 4 -1 2 0 0 Z " fill="#773A51" transform="translate(387,365)"/>
<path d="M0 0 C0 1.32 0 2.64 0 4 C-0.66 4 -1.32 4 -2 4 C-2 3.34 -2 2.68 -2 2 C-3.98 2 -5.96 2 -8 2 C-8 1.34 -8 0.68 -8 0 C-4.94736336 -0.98120464 -3.05263664 -0.98120464 0 0 Z " fill="#5C2837" transform="translate(297,314)"/>
<path d="M0 0 C0.99 0.33 1.98 0.66 3 1 C3 2.32 3 3.64 3 5 C1.68 4.67 0.36 4.34 -1 4 C-1.33 4.99 -1.66 5.98 -2 7 C-2.33 5.68 -2.66 4.36 -3 3 C-2.01 2.67 -1.02 2.34 0 2 C0 1.34 0 0.68 0 0 Z " fill="#663C48" transform="translate(281,242)"/>
<path d="M0 0 C2 2 2 2 2.375 4.4375 C2 7 2 7 0 8.8125 C-0.66 9.204375 -1.32 9.59625 -2 10 C-1.54177532 6.53058454 -1.10868317 3.32604951 0 0 Z " fill="#714D58" transform="translate(14,213)"/>
<path d="M0 0 C1.32 0.33 2.64 0.66 4 1 C3.01 2.32 2.02 3.64 1 5 C1.33 5.66 1.66 6.32 2 7 C0.0625 6.625 0.0625 6.625 -2 6 C-2.33 5.34 -2.66 4.68 -3 4 C-2.505 3.525625 -2.01 3.05125 -1.5 2.5625 C0.11542197 1.24076302 0.11542197 1.24076302 0 0 Z " fill="#581429" transform="translate(300,192)"/>
<path d="M0 0 C1.65 0 3.3 0 5 0 C4.01 1.485 4.01 1.485 3 3 C3.99 3.99 4.98 4.98 6 6 C4.35 6.33 2.7 6.66 1 7 C0.67 4.69 0.34 2.38 0 0 Z " fill="#612F3C" transform="translate(416,185)"/>
<path d="M0 0 C1.32 0.66 2.64 1.32 4 2 C3.39816251 4.02045442 2.72693904 6.02111039 2 8 C1.01 8.495 1.01 8.495 0 9 C0.33 7.35 0.66 5.7 1 4 C0.67 4.33 0.34 4.66 0 5 C-0.33 4.01 -0.66 3.02 -1 2 C-0.67 1.34 -0.34 0.68 0 0 Z " fill="#561529" transform="translate(65,153)"/>
<path d="M0 0 C0.99 0.33 1.98 0.66 3 1 C1.63016497 4.16115776 1.0109362 4.9927092 -2 7 C-2.33 5.35 -2.66 3.7 -3 2 C-2.34 2 -1.68 2 -1 2 C-0.67 1.34 -0.34 0.68 0 0 Z " fill="#815168" transform="translate(76,149)"/>
<path d="M0 0 C0.66 0.99 1.32 1.98 2 3 C-1.96 4.98 -1.96 4.98 -6 7 C-6 5.68 -6 4.36 -6 3 C-4 2 -2 1 0 0 Z " fill="#7B4056" transform="translate(119,116)"/>
<path d="M0 0 C0.66 1.32 1.32 2.64 2 4 C0 6 0 6 -2.625 6.125 C-3.40875 6.08375 -4.1925 6.0425 -5 6 C-3.35 4.02 -1.7 2.04 0 0 Z " fill="#885B71" transform="translate(378,376)"/>
<path d="M0 0 C0.66 0 1.32 0 2 0 C2.625 2.375 2.625 2.375 3 5 C2.34 5.66 1.68 6.32 1 7 C0.34 6.67 -0.32 6.34 -1 6 C-1.042721 4.33388095 -1.04063832 2.66617115 -1 1 C-0.67 0.67 -0.34 0.34 0 0 Z " fill="#4E1C29" transform="translate(11,320)"/>
<path d="M0 0 C1.9996441 0.03772913 4.00054061 0.04649906 6 0 C6 0.33 6 0.66 6 1 C1.9472484 1.98248524 -1.83861737 2.08159574 -6 2 C-6.33 1.34 -6.66 0.68 -7 0 C-4.29966295 -1.35016853 -2.93418878 -0.60017498 0 0 Z " fill="#55182A" transform="translate(399,275)"/>
<path d="M0 0 C2.71843438 3.62457917 3.41789544 4.80884715 4 9 C3.01 9.33 2.02 9.66 1 10 C0.67 6.7 0.34 3.4 0 0 Z " fill="#4F1C2B" transform="translate(459,256)"/>
<path d="M0 0 C-3.25 1.625 -3.25 1.625 -7 3 C-9.4375 2.1875 -9.4375 2.1875 -11 1 C-3.57142857 -1.42857143 -3.57142857 -1.42857143 0 0 Z " fill="#715057" transform="translate(344,173)"/>
<path d="M0 0 C2.475 0.495 2.475 0.495 5 1 C4.67 2.98 4.34 4.96 4 7 C0 2.25 0 2.25 0 0 Z " fill="#784550" transform="translate(30,379)"/>
<path d="M0 0 C0.33 0.66 0.66 1.32 1 2 C1.99 2.33 2.98 2.66 4 3 C4 3.99 4 4.98 4 6 C3.01 6.33 2.02 6.66 1 7 C0.34 5.02 -0.32 3.04 -1 1 C-0.67 0.67 -0.34 0.34 0 0 Z " fill="#734B57" transform="translate(24,365)"/>
<path d="M0 0 C0.99 0 1.98 0 3 0 C2.34 2.97 1.68 5.94 1 9 C-1 6 -1 6 -0.625 2.8125 C-0.41875 1.884375 -0.2125 0.95625 0 0 Z " fill="#74525A" transform="translate(418,345)"/>
<path d="M0 0 C0.66 0 1.32 0 2 0 C2.79953138 3.28696233 3.09658936 4.71023192 2 8 C1.34 8 0.68 8 0 8 C-1.09658936 4.71023192 -0.79953138 3.28696233 0 0 Z " fill="#662D47" transform="translate(485,269)"/>
<path d="M0 0 C0.66 0 1.32 0 2 0 C1.67 0.99 1.34 1.98 1 3 C0.34 3 -0.32 3 -1 3 C-0.04134491 5.33075929 -0.04134491 5.33075929 3 7 C1.68 7.33 0.36 7.66 -1 8 C-1 7.34 -1 6.68 -1 6 C-1.66 5.67 -2.32 5.34 -3 5 C-1.625 2.5 -1.625 2.5 0 0 Z " fill="#4E1824" transform="translate(277,211)"/>
<path d="M0 0 C2.04119788 1.61594832 4.04072937 3.2856382 6 5 C6 5.66 6 6.32 6 7 C4.68 7 3.36 7 2 7 C1.34 4.69 0.68 2.38 0 0 Z " fill="#865D63" transform="translate(447,208)"/>
<path d="M0 0 C2.64 0.33 5.28 0.66 8 1 C5.38058783 2.74627478 3.96175123 3.38722388 1 4 C0.67 2.68 0.34 1.36 0 0 Z " fill="#6C3B44" transform="translate(331,195)"/>
<path d="M0 0 C0.66 0.33 1.32 0.66 2 1 C1.21654285 2.17219543 0.42297164 3.33763668 -0.375 4.5 C-0.81585937 5.1496875 -1.25671875 5.799375 -1.7109375 6.46875 C-2.13632812 6.9740625 -2.56171875 7.479375 -3 8 C-3.66 8 -4.32 8 -5 8 C-3.375 2.25 -3.375 2.25 0 0 Z " fill="#6E4752" transform="translate(25,191)"/>
<path d="M0 0 C0.99 0.99 1.98 1.98 3 3 C2.34 4.65 1.68 6.3 1 8 C-1 6 -1 6 -1.1875 3.4375 C-1 1 -1 1 0 0 Z " fill="#5A2B39" transform="translate(35,381)"/>
<path d="M0 0 C0.99 0 1.98 0 3 0 C2.39816251 2.02045442 1.72693904 4.02111039 1 6 C0.01 6.495 0.01 6.495 -1 7 C-1.625 5.1875 -1.625 5.1875 -2 3 C-1.34 2.01 -0.68 1.02 0 0 Z " fill="#4B1726" transform="translate(380,375)"/>
<path d="M0 0 C0.99 0 1.98 0 3 0 C3 0.99 3 1.98 3 3 C3.99 3.33 4.98 3.66 6 4 C4.02 4.99 4.02 4.99 2 6 C1.34 4.02 0.68 2.04 0 0 Z " fill="#4E1723" transform="translate(26,371)"/>
<path d="M0 0 C1.32 0.33 2.64 0.66 4 1 C3.39816251 3.02045442 2.72693904 5.02111039 2 7 C1.01 7.495 1.01 7.495 0 8 C0 5.36 0 2.72 0 0 Z " fill="#521524" transform="translate(321,333)"/>
<path d="M0 0 C2 1 2 1 2 1 Z M-1 1 C1.50037734 3.17424117 2.43628586 4.73045798 3 8 C1.0625 7.6875 1.0625 7.6875 -1 7 C-2 4 -2 4 -1 1 Z " fill="#551522" transform="translate(293,332)"/>
<path d="M0 0 C0.33 0 0.66 0 1 0 C1 1.65 1 3.3 1 5 C-1.31 4.67 -3.62 4.34 -6 4 C-5.34 3.01 -4.68 2.02 -4 1 C-3.34 1 -2.68 1 -2 1 C-2 1.66 -2 2.32 -2 3 C-1.34 3 -0.68 3 0 3 C0 2.01 0 1.02 0 0 Z " fill="#551529" transform="translate(297,315)"/>
<path d="M0 0 C1.32 0.33 2.64 0.66 4 1 C4.33 2.32 4.66 3.64 5 5 C4.01 5.33 3.02 5.66 2 6 C1.34 4.02 0.68 2.04 0 0 Z " fill="#6C3A52" transform="translate(452,249)"/>
<path d="M0 0 C2.0625 1.6875 2.0625 1.6875 4 4 C3.75 6.75 3.75 6.75 3 9 C1.35173889 6.03312999 0.55728913 3.34373475 0 0 Z " fill="#694A54" transform="translate(463,227)"/>
<path d="M0 0 C0.99 0.33 1.98 0.66 3 1 C0.59563974 4.60654039 -0.94679607 4.85452932 -5 6 C-3.35 4.02 -1.7 2.04 0 0 Z " fill="#886D75" transform="translate(288,199)"/>
<path d="M0 0 C0.66 0 1.32 0 2 0 C1.67 1.32 1.34 2.64 1 4 C-1.31 4.33 -3.62 4.66 -6 5 C-5.195625 4.360625 -4.39125 3.72125 -3.5625 3.0625 C-1.7249496 1.59396498 -1.7249496 1.59396498 0 0 Z " fill="#71474F" transform="translate(133,162)"/>
<path d="M0 0 C0 3.10551666 -0.5393715 4.35261084 -2 7 C-3.32 6.67 -4.64 6.34 -6 6 C-4.02 4.02 -2.04 2.04 0 0 Z " fill="#280E15" transform="translate(71,125)"/>
<path d="M0 0 C0.99 0.33 1.98 0.66 3 1 C2.67 2.32 2.34 3.64 2 5 C2.66 5 3.32 5 4 5 C3.67 5.66 3.34 6.32 3 7 C1.02 5.68 -0.96 4.36 -3 3 C-2.01 2.67 -1.02 2.34 0 2 C0 1.34 0 0.68 0 0 Z " fill="#82515B" transform="translate(314,121)"/>
<path d="M0 0 C0.99 0.33 1.98 0.66 3 1 C3 1.66 3 2.32 3 3 C3.99 3.66 4.98 4.32 6 5 C4.68 5.33 3.36 5.66 2 6 C0.68 4.35 -0.64 2.7 -2 1 C-1.34 0.67 -0.68 0.34 0 0 Z " fill="#72404F" transform="translate(308,425)"/>
<path d="M0 0 C1.32 0.99 2.64 1.98 4 3 C3.67 3.99 3.34 4.98 3 6 C2.34 6 1.68 6 1 6 C-0.625 4 -0.625 4 -2 2 C-1.34 1.34 -0.68 0.68 0 0 Z " fill="#4E1926" transform="translate(396,350)"/>
<path d="M0 0 C0.33 0 0.66 0 1 0 C1 1.65 1 3.3 1 5 C1.66 5 2.32 5 3 5 C3.33 4.34 3.66 3.68 4 3 C4 3.99 4 4.98 4 6 C2.35 6.66 0.7 7.32 -1 8 C-0.67 5.36 -0.34 2.72 0 0 Z " fill="#724854" transform="translate(400,330)"/>
<path d="M0 0 C2 2 2 2 2.125 4.625 C2.08375 5.40875 2.0425 6.1925 2 7 C0.02 7.99 0.02 7.99 -2 9 C-1.34 6.03 -0.68 3.06 0 0 Z " fill="#724259" transform="translate(11,223)"/>
<path d="M0 0 C1.32 0.33 2.64 0.66 4 1 C4.33 2.32 4.66 3.64 5 5 C4.01 5 3.02 5 2 5 C1.34 4.34 0.68 3.68 0 3 C0 2.01 0 1.02 0 0 Z " fill="#76375E" transform="translate(434,225)"/>
<path d="M0 0 C1.485 0.99 1.485 0.99 3 2 C2.67 3.65 2.34 5.3 2 7 C1.34 7 0.68 7 0 7 C0 4.69 0 2.38 0 0 Z " fill="#6D4752" transform="translate(442,203)"/>
<path d="M0 0 C0.66 0.33 1.32 0.66 2 1 C0.515 4.96 0.515 4.96 -1 9 C-1.66 8.34 -2.32 7.68 -3 7 C-2.625 4.875 -2.625 4.875 -2 3 C-1.34 3 -0.68 3 0 3 C0 2.01 0 1.02 0 0 Z " fill="#7E3F48" transform="translate(42,203)"/>
<path d="M0 0 C0 0.99 0 1.98 0 3 C-2.4375 2.625 -2.4375 2.625 -5 2 C-5.33 1.34 -5.66 0.68 -6 0 C-3.50907189 -1.24546405 -2.58919267 -0.7767578 0 0 Z " fill="#551D27" transform="translate(424,187)"/>
<path d="M0 0 C1.65 0 3.3 0 5 0 C5 0.99 5 1.98 5 3 C3.02 3.33 1.04 3.66 -1 4 C-0.67 2.68 -0.34 1.36 0 0 Z " fill="#5A2E3B" transform="translate(330,175)"/>
<path d="M0 0 C1.98 0.66 3.96 1.32 6 2 C5.67 2.66 5.34 3.32 5 4 C4.01 4.33 3.02 4.66 2 5 C1.01 4.01 0.02 3.02 -1 2 C-0.67 1.34 -0.34 0.68 0 0 Z " fill="#551724" transform="translate(335,115)"/>
</svg>
